solid WRAP
facet normal -0.1657179530121 -0.7681372813813 0.6184680080664
outer loop
vertex 0.0000000000000 -46.0499990000000 10.0323524000000
vertex -5.4000000000000 -46.0499990000000 8.5854272000000
vertex 0.0000000000000 -54.7456510000000 -0.7676476000000
endloop
endfacet
facet normal 0.1657179530121 -0.7681372813813 0.6184680080664
outer loop
vertex 0.0000000000000 -46.0499990000000 10.0323524000000
vertex 0.0000000000000 -54.7456510000000 -0.7676476000000
vertex 5.4000000000000 -46.0499990000000 8.5854272000000
endloop
endfacet
facet normal 0.1771103044567 -0.7291988487477 0.6609848553789
outer loop
vertex 0.0000000000000 -46.0499990000000 10.0323524000000
vertex 5.4000000000000 -46.0499990000000 8.5854272000000
vertex 24.5946444000000 -25.3918210000000 26.2323524000000
endloop
endfacet
facet normal 0.3669905227583 -0.7773896374950 0.5108652539770
outer loop
vertex 5.4000000000000 -46.0499990000000 8.5854272000000
vertex 0.0000000000000 -54.7456510000000 -0.7676476000000
vertex 24.5946444000000 -25.3918210000000 26.2323524000000
endloop
endfacet
facet normal 0.8316315282945 -0.5553278321375 0.0000000000000
outer loop
vertex 24.5946444000000 -25.3918210000000 26.2323524000000
vertex 10.8000000000000 -46.0499990000000 -0.7676476000000
vertex 24.5946444000000 -25.3918210000000 14.2323524000000
endloop
endfacet
facet normal -0.0000000000000 0.7758551606008 0.6309110632801
outer loop
vertex -24.5946444000000 15.2918210000000 26.2323524000000
vertex 24.5946444000000 15.2918210000000 26.2323524000000
vertex 0.0000000000000 25.0499990000000 14.2323524000000
endloop
endfacet
facet normal -0.9333515898060 0.0000000000000 -0.3589635215541
outer loop
vertex -24.5946444000000 -25.3918210000000 14.2323524000000
vertex -24.5946444000000 15.2918210000000 14.2323524000000
vertex -15.4050576000000 -30.0499990000000 -9.6617620000000
endloop
endfacet
facet normal -0.8963701804985 0.0504256484176 -0.4404290561426
outer loop
vertex -15.4050576000000 -30.0499990000000 -9.6617620000000
vertex -24.5946444000000 15.2918210000000 14.2323524000000
vertex -12.9903804000000 25.0499990000000 -8.2676476000000
endloop
endfacet
facet normal 0.0000000000000 -0.6170811495253 0.7868995202061
outer loop
vertex 0.0000000000000 -46.0499990000000 10.0323524000000
vertex 24.5946444000000 -25.3918210000000 26.2323524000000
vertex -24.5946444000000 -25.3918210000000 26.2323524000000
endloop
endfacet
facet normal -0.1771103044567 -0.7291988487477 0.6609848553789
outer loop
vertex -5.4000000000000 -46.0499990000000 8.5854272000000
vertex 0.0000000000000 -46.0499990000000 10.0323524000000
vertex -24.5946444000000 -25.3918210000000 26.2323524000000
endloop
endfacet
facet normal -0.8316315282945 -0.5553278321375 -0.0000000000000
outer loop
vertex -24.5946444000000 -25.3918210000000 26.2323524000000
vertex -24.5946444000000 -25.3918210000000 14.2323524000000
vertex -10.8000000000000 -46.0499990000000 -0.7676476000000
endloop
endfacet
facet normal -0.3669905227583 -0.7773896374950 0.5108652539770
outer loop
vertex 0.0000000000000 -54.7456510000000 -0.7676476000000
vertex -5.4000000000000 -46.0499990000000 8.5854272000000
vertex -24.5946444000000 -25.3918210000000 26.2323524000000
endloop
endfacet
facet normal -0.8820005828877 -0.3910457808615 -0.2629794080460
outer loop
vertex -24.5946444000000 -25.3918210000000 14.2323524000000
vertex -15.4050576000000 -30.0499990000000 -9.6617620000000
vertex -9.3530748000000 -46.0499990000000 -6.1676476000000
endloop
endfacet
facet normal -0.8785077268311 -0.4157080661546 -0.2353953645086
outer loop
vertex -10.8000000000000 -46.0499990000000 -0.7676476000000
vertex -24.5946444000000 -25.3918210000000 14.2323524000000
vertex -9.3530748000000 -46.0499990000000 -6.1676476000000
endloop
endfacet
facet normal -0.6184680080664 -0.7681372813813 -0.1657179530121
outer loop
vertex 0.0000000000000 -54.7456510000000 -0.7676476000000
vertex -10.8000000000000 -46.0499990000000 -0.7676476000000
vertex -9.3530748000000 -46.0499990000000 -6.1676476000000
endloop
endfacet
facet normal -0.4527499930356 -0.7681372843525 -0.4527499930356
outer loop
vertex 0.0000000000000 -54.7456510000000 -0.7676476000000
vertex -9.3530748000000 -46.0499990000000 -6.1676476000000
vertex -5.4000000000000 -46.0499990000000 -10.1207224000000
endloop
endfacet
facet normal -0.2585104642527 0.0488205224431 -0.9647740131555
outer loop
vertex 0.0000000000000 -30.0499990000000 -18.5558764000000
vertex -8.8941144000000 -30.0499990000000 -16.1727052000000
vertex 0.0000000000000 25.0499990000000 -15.7676476000000
endloop
endfacet
facet normal 0.4940543549058 -0.7755035431743 0.3930706665763
outer loop
vertex 24.5946444000000 -25.3918210000000 26.2323524000000
vertex 0.0000000000000 -54.7456510000000 -0.7676476000000
vertex 9.3530748000000 -46.0499990000000 4.6323524000000
endloop
endfacet
facet normal 0.6184680080664 -0.7681372813813 0.1657179530121
outer loop
vertex 0.0000000000000 -54.7456510000000 -0.7676476000000
vertex 10.8000000000000 -46.0499990000000 -0.7676476000000
vertex 9.3530748000000 -46.0499990000000 4.6323524000000
endloop
endfacet
facet normal 0.6887473225942 -0.7011196091015 0.1845492328693
outer loop
vertex 10.8000000000000 -46.0499990000000 -0.7676476000000
vertex 24.5946444000000 -25.3918210000000 26.2323524000000
vertex 9.3530748000000 -46.0499990000000 4.6323524000000
endloop
endfacet
facet normal 0.2585104995753 0.0488205280731 -0.9647740034060
outer loop
vertex 0.0000000000000 25.0499990000000 -15.7676476000000
vertex 7.5000000000000 25.0499990000000 -13.7580280000000
vertex 8.8941144000000 -30.0499990000000 -16.1727052000000
endloop
endfacet
facet normal 0.2585104642527 0.0488205224431 -0.9647740131555
outer loop
vertex 0.0000000000000 -30.0499990000000 -18.5558764000000
vertex 0.0000000000000 25.0499990000000 -15.7676476000000
vertex 8.8941144000000 -30.0499990000000 -16.1727052000000
endloop
endfacet
facet normal -0.2384659392479 -0.3887058681480 -0.8899672712442
outer loop
vertex -5.4000000000000 -46.0499990000000 -10.1207224000000
vertex -8.8941144000000 -30.0499990000000 -16.1727052000000
vertex 0.0000000000000 -46.0499990000000 -11.5676476000000
endloop
endfacet
facet normal -0.2384660420609 -0.3887059118743 -0.8899672245975
outer loop
vertex -8.8941144000000 -30.0499990000000 -16.1727052000000
vertex 0.0000000000000 -30.0499990000000 -18.5558764000000
vertex 0.0000000000000 -46.0499990000000 -11.5676476000000
endloop
endfacet
facet normal 0.2384660420609 -0.3887059118743 -0.8899672245975
outer loop
vertex 0.0000000000000 -30.0499990000000 -18.5558764000000
vertex 8.8941144000000 -30.0499990000000 -16.1727052000000
vertex 0.0000000000000 -46.0499990000000 -11.5676476000000
endloop
endfacet
facet normal 0.2384659392479 -0.3887058681480 -0.8899672712442
outer loop
vertex 0.0000000000000 -46.0499990000000 -11.5676476000000
vertex 8.8941144000000 -30.0499990000000 -16.1727052000000
vertex 5.4000000000000 -46.0499990000000 -10.1207224000000
endloop
endfacet
facet normal -0.1657179530121 -0.7681372813813 -0.6184680080664
outer loop
vertex 0.0000000000000 -54.7456510000000 -0.7676476000000
vertex -5.4000000000000 -46.0499990000000 -10.1207224000000
vertex 0.0000000000000 -46.0499990000000 -11.5676476000000
endloop
endfacet
facet normal 0.1657179530121 -0.7681372813813 -0.6184680080664
outer loop
vertex 0.0000000000000 -54.7456510000000 -0.7676476000000
vertex 0.0000000000000 -46.0499990000000 -11.5676476000000
vertex 5.4000000000000 -46.0499990000000 -10.1207224000000
endloop
endfacet
facet normal 0.8820005828877 -0.3910457808615 -0.2629794080460
outer loop
vertex 24.5946444000000 -25.3918210000000 14.2323524000000
vertex 9.3530748000000 -46.0499990000000 -6.1676476000000
vertex 15.4050576000000 -30.0499990000000 -9.6617620000000
endloop
endfacet
facet normal 0.8785077268311 -0.4157080661546 -0.2353953645086
outer loop
vertex 24.5946444000000 -25.3918210000000 14.2323524000000
vertex 10.8000000000000 -46.0499990000000 -0.7676476000000
vertex 9.3530748000000 -46.0499990000000 -6.1676476000000
endloop
endfacet
facet normal 0.6184680080664 -0.7681372813813 -0.1657179530121
outer loop
vertex 10.8000000000000 -46.0499990000000 -0.7676476000000
vertex 0.0000000000000 -54.7456510000000 -0.7676476000000
vertex 9.3530748000000 -46.0499990000000 -6.1676476000000
endloop
endfacet
facet normal 0.4527499930356 -0.7681372843525 -0.4527499930356
outer loop
vertex 0.0000000000000 -54.7456510000000 -0.7676476000000
vertex 5.4000000000000 -46.0499990000000 -10.1207224000000
vertex 9.3530748000000 -46.0499990000000 -6.1676476000000
endloop
endfacet
facet normal 0.9333515898060 0.0000000000000 -0.3589635215541
outer loop
vertex 24.5946444000000 -25.3918210000000 14.2323524000000
vertex 15.4050576000000 -30.0499990000000 -9.6617620000000
vertex 24.5946444000000 15.2918210000000 14.2323524000000
endloop
endfacet
facet normal 0.7130564584704 0.7011066160247 0.0000000000000
outer loop
vertex 24.5946444000000 15.2918210000000 26.2323524000000
vertex 24.5946444000000 15.2918210000000 14.2323524000000
vertex 15.0000000000000 25.0499990000000 -0.7676476000000
endloop
endfacet
facet normal -0.6184680080664 -0.7681372813813 0.1657179530121
outer loop
vertex -10.8000000000000 -46.0499990000000 -0.7676476000000
vertex 0.0000000000000 -54.7456510000000 -0.7676476000000
vertex -9.3530748000000 -46.0499990000000 4.6323524000000
endloop
endfacet
facet normal -0.4940543549058 -0.7755035431743 0.3930706665763
outer loop
vertex 0.0000000000000 -54.7456510000000 -0.7676476000000
vertex -24.5946444000000 -25.3918210000000 26.2323524000000
vertex -9.3530748000000 -46.0499990000000 4.6323524000000
endloop
endfacet
facet normal -0.6887473225942 -0.7011196091015 0.1845492328693
outer loop
vertex -24.5946444000000 -25.3918210000000 26.2323524000000
vertex -10.8000000000000 -46.0499990000000 -0.7676476000000
vertex -9.3530748000000 -46.0499990000000 4.6323524000000
endloop
endfacet
facet normal -0.2585104995753 0.0488205280731 -0.9647740034060
outer loop
vertex 0.0000000000000 25.0499990000000 -15.7676476000000
vertex -8.8941144000000 -30.0499990000000 -16.1727052000000
vertex -7.5000000000000 25.0499990000000 -13.7580280000000
endloop
endfacet
facet normal 0.4971400081003 0.8573840208629 0.1332083072297
outer loop
vertex 24.5946444000000 15.2918210000000 26.2323524000000
vertex 15.0000000000000 25.0499990000000 -0.7676476000000
vertex 12.9903804000000 25.0499990000000 6.7323524000000
endloop
endfacet
facet normal -0.2867672731889 0.9140727881606 0.2867672731889
outer loop
vertex -12.9903804000000 25.0499990000000 6.7323524000000
vertex -24.5946444000000 15.2918210000000 26.2323524000000
vertex -7.5000000000000 25.0499990000000 12.2227328000000
endloop
endfacet
facet normal -0.1235809371919 0.8786426557779 0.4612101857183
outer loop
vertex -24.5946444000000 15.2918210000000 26.2323524000000
vertex 0.0000000000000 25.0499990000000 14.2323524000000
vertex -7.5000000000000 25.0499990000000 12.2227328000000
endloop
endfacet
facet normal -0.7130564584704 0.7011066160247 0.0000000000000
outer loop
vertex -24.5946444000000 15.2918210000000 14.2323524000000
vertex -24.5946444000000 15.2918210000000 26.2323524000000
vertex -15.0000000000000 25.0499990000000 -0.7676476000000
endloop
endfacet
facet normal -0.8456842239186 0.4831877651334 -0.2266004789063
outer loop
vertex -12.9903804000000 25.0499990000000 -8.2676476000000
vertex -24.5946444000000 15.2918210000000 14.2323524000000
vertex -15.0000000000000 25.0499990000000 -0.7676476000000
endloop
endfacet
facet normal -0.4971400081003 0.8573840208629 0.1332083072297
outer loop
vertex -24.5946444000000 15.2918210000000 26.2323524000000
vertex -12.9903804000000 25.0499990000000 6.7323524000000
vertex -15.0000000000000 25.0499990000000 -0.7676476000000
endloop
endfacet
facet normal 0.8456842239186 0.4831877651334 -0.2266004789063
outer loop
vertex 15.0000000000000 25.0499990000000 -0.7676476000000
vertex 24.5946444000000 15.2918210000000 14.2323524000000
vertex 12.9903804000000 25.0499990000000 -8.2676476000000
endloop
endfacet
facet normal 0.8963701804985 0.0504256484176 -0.4404290561426
outer loop
vertex 24.5946444000000 15.2918210000000 14.2323524000000
vertex 15.4050576000000 -30.0499990000000 -9.6617620000000
vertex 12.9903804000000 25.0499990000000 -8.2676476000000
endloop
endfacet
facet normal 0.1235809371919 0.8786426557779 0.4612101857183
outer loop
vertex 0.0000000000000 25.0499990000000 14.2323524000000
vertex 24.5946444000000 15.2918210000000 26.2323524000000
vertex 7.5000000000000 25.0499990000000 12.2227328000000
endloop
endfacet
facet normal 0.2867672731889 0.9140727881606 0.2867672731889
outer loop
vertex 24.5946444000000 15.2918210000000 26.2323524000000
vertex 12.9903804000000 25.0499990000000 6.7323524000000
vertex 7.5000000000000 25.0499990000000 12.2227328000000
endloop
endfacet
facet normal -1.0000000000000 -0.0000000000000 -0.0000000000000
outer loop
vertex -24.5946444000000 15.2918210000000 26.2323524000000
vertex -24.5946444000000 15.2918210000000 14.2323524000000
vertex -24.5946444000000 -25.3918210000000 26.2323524000000
endloop
endfacet
facet normal -1.0000000000000 0.0000000000000 0.0000000000000
outer loop
vertex -24.5946444000000 15.2918210000000 14.2323524000000
vertex -24.5946444000000 -25.3918210000000 14.2323524000000
vertex -24.5946444000000 -25.3918210000000 26.2323524000000
endloop
endfacet
facet normal 0.0000000000000 0.0000000000000 1.0000000000000
outer loop
vertex 24.5946444000000 15.2918210000000 26.2323524000000
vertex -24.5946444000000 15.2918210000000 26.2323524000000
vertex -24.5946444000000 -25.3918210000000 26.2323524000000
endloop
endfacet
facet normal 0.0000000000000 -0.0000000000000 1.0000000000000
outer loop
vertex 24.5946444000000 -25.3918210000000 26.2323524000000
vertex 24.5946444000000 15.2918210000000 26.2323524000000
vertex -24.5946444000000 -25.3918210000000 26.2323524000000
endloop
endfacet
facet normal -0.6515012411009 -0.3887058858418 -0.6515012411009
outer loop
vertex -5.4000000000000 -46.0499990000000 -10.1207224000000
vertex -9.3530748000000 -46.0499990000000 -6.1676476000000
vertex -8.8941144000000 -30.0499990000000 -16.1727052000000
endloop
endfacet
facet normal -0.6515012411009 -0.3887058858418 -0.6515012411009
outer loop
vertex -9.3530748000000 -46.0499990000000 -6.1676476000000
vertex -15.4050576000000 -30.0499990000000 -9.6617620000000
vertex -8.8941144000000 -30.0499990000000 -16.1727052000000
endloop
endfacet
facet normal 0.6515012411009 -0.3887058858418 -0.6515012411009
outer loop
vertex 5.4000000000000 -46.0499990000000 -10.1207224000000
vertex 8.8941144000000 -30.0499990000000 -16.1727052000000
vertex 9.3530748000000 -46.0499990000000 -6.1676476000000
endloop
endfacet
facet normal 0.6515012411009 -0.3887058858418 -0.6515012411009
outer loop
vertex 9.3530748000000 -46.0499990000000 -6.1676476000000
vertex 8.8941144000000 -30.0499990000000 -16.1727052000000
vertex 15.4050576000000 -30.0499990000000 -9.6617620000000
endloop
endfacet
facet normal 1.0000000000000 0.0000000000000 0.0000000000000
outer loop
vertex 24.5946444000000 15.2918210000000 26.2323524000000
vertex 24.5946444000000 -25.3918210000000 26.2323524000000
vertex 24.5946444000000 15.2918210000000 14.2323524000000
endloop
endfacet
facet normal 1.0000000000000 0.0000000000000 0.0000000000000
outer loop
vertex 24.5946444000000 -25.3918210000000 26.2323524000000
vertex 24.5946444000000 -25.3918210000000 14.2323524000000
vertex 24.5946444000000 15.2918210000000 14.2323524000000
endloop
endfacet
facet normal -0.7062636038502 0.0488205259414 -0.7062636038502
outer loop
vertex -8.8941144000000 -30.0499990000000 -16.1727052000000
vertex -15.4050576000000 -30.0499990000000 -9.6617620000000
vertex -7.5000000000000 25.0499990000000 -13.7580280000000
endloop
endfacet
facet normal -0.7062636038502 0.0488205259414 -0.7062636038502
outer loop
vertex -15.4050576000000 -30.0499990000000 -9.6617620000000
vertex -12.9903804000000 25.0499990000000 -8.2676476000000
vertex -7.5000000000000 25.0499990000000 -13.7580280000000
endloop
endfacet
facet normal 0.7062636038502 0.0488205259414 -0.7062636038502
outer loop
vertex 15.4050576000000 -30.0499990000000 -9.6617620000000
vertex 8.8941144000000 -30.0499990000000 -16.1727052000000
vertex 12.9903804000000 25.0499990000000 -8.2676476000000
endloop
endfacet
facet normal 0.7062636038502 0.0488205259414 -0.7062636038502
outer loop
vertex 8.8941144000000 -30.0499990000000 -16.1727052000000
vertex 7.5000000000000 25.0499990000000 -13.7580280000000
vertex 12.9903804000000 25.0499990000000 -8.2676476000000
endloop
endfacet
facet normal 0.0000000000000 1.0000000000000 -0.0000000000000
outer loop
vertex 0.0000000000000 25.0499990000000 -15.7676476000000
vertex -7.5000000000000 25.0499990000000 -13.7580280000000
vertex 7.5000000000000 25.0499990000000 12.2227328000000
endloop
endfacet
facet normal 0.0000000000000 1.0000000000000 -0.0000000000000
outer loop
vertex 7.5000000000000 25.0499990000000 -13.7580280000000
vertex 0.0000000000000 25.0499990000000 -15.7676476000000
vertex 7.5000000000000 25.0499990000000 12.2227328000000
endloop
endfacet
facet normal 0.0000000000000 1.0000000000000 0.0000000000000
outer loop
vertex 12.9903804000000 25.0499990000000 6.7323524000000
vertex 15.0000000000000 25.0499990000000 -0.7676476000000
vertex 7.5000000000000 25.0499990000000 12.2227328000000
endloop
endfacet
facet normal 0.0000000000000 1.0000000000000 0.0000000000000
outer loop
vertex -15.0000000000000 25.0499990000000 -0.7676476000000
vertex -12.9903804000000 25.0499990000000 6.7323524000000
vertex 7.5000000000000 25.0499990000000 12.2227328000000
endloop
endfacet
facet normal 0.0000000000000 1.0000000000000 0.0000000000000
outer loop
vertex -12.9903804000000 25.0499990000000 6.7323524000000
vertex -7.5000000000000 25.0499990000000 12.2227328000000
vertex 7.5000000000000 25.0499990000000 12.2227328000000
endloop
endfacet
facet normal 0.0000000000000 1.0000000000000 -0.0000000000000
outer loop
vertex -7.5000000000000 25.0499990000000 -13.7580280000000
vertex -12.9903804000000 25.0499990000000 -8.2676476000000
vertex 7.5000000000000 25.0499990000000 12.2227328000000
endloop
endfacet
facet normal 0.0000000000000 1.0000000000000 0.0000000000000
outer loop
vertex 15.0000000000000 25.0499990000000 -0.7676476000000
vertex 12.9903804000000 25.0499990000000 -8.2676476000000
vertex 7.5000000000000 25.0499990000000 12.2227328000000
endloop
endfacet
facet normal 0.0000000000000 1.0000000000000 0.0000000000000
outer loop
vertex -7.5000000000000 25.0499990000000 12.2227328000000
vertex 0.0000000000000 25.0499990000000 14.2323524000000
vertex 7.5000000000000 25.0499990000000 12.2227328000000
endloop
endfacet
facet normal 0.0000000000000 1.0000000000000 -0.0000000000000
outer loop
vertex -12.9903804000000 25.0499990000000 -8.2676476000000
vertex -15.0000000000000 25.0499990000000 -0.7676476000000
vertex 7.5000000000000 25.0499990000000 12.2227328000000
endloop
endfacet
facet normal 0.0000000000000 1.0000000000000 0.0000000000000
outer loop
vertex 12.9903804000000 25.0499990000000 -8.2676476000000
vertex 7.5000000000000 25.0499990000000 -13.7580280000000
vertex 7.5000000000000 25.0499990000000 12.2227328000000
endloop
endfacet
endsolid WRAP
